<?xml version="1.0" standalone="no"?><!DOCTYPE svg PUBLIC "-//W3C//DTD SVG 1.1//EN" "http://www.w3.org/Graphics/SVG/1.1/DTD/svg11.dtd"><svg t="1544614009251" class="icon" style="" viewBox="0 0 1024 1024" version="1.1" xmlns="http://www.w3.org/2000/svg" p-id="3506" xmlns:xlink="http://www.w3.org/1999/xlink" width="200" height="200"><defs><style type="text/css"></style></defs><path d="M553.657344 732.63616c-67.167232 0-134.387712-25.582592-185.499648-76.695552-10.527744-10.527744-10.527744-27.582464 0-38.110208 10.527744-10.527744 27.582464-10.527744 38.110208 0 81.27488 81.27488 213.556224 81.27488 294.831104 0l208.08192-208.135168c81.27488-81.27488 81.27488-213.504 0-294.77888-81.221632-81.221632-213.504-81.27488-294.831104 0L510.282752 218.932224c-10.527744 10.527744-27.582464 10.527744-38.110208 0-10.527744-10.527744-10.527744-27.582464 0-38.110208L576.239616 76.807168c102.330368-102.330368 268.722176-102.330368 371.052544 0 102.27712 102.27712 102.27712 268.722176 0 371.00032L739.21024 655.941632C688.045056 707.053568 620.824576 732.63616 553.657344 732.63616z" p-id="3507"></path><path d="M262.352896 1023.940608c-67.167232 0-134.387712-25.582592-185.499648-76.694528C27.267072 897.659904 0 831.808512 0 761.693184c0-70.06208 27.267072-135.96672 76.853248-185.499648l208.08192-208.08192c49.532928-49.586176 115.437568-76.853248 185.499648-76.853248 70.115328 0 135.96672 27.267072 185.552896 76.853248 10.527744 10.527744 10.527744 27.582464 0 38.110208-10.527744 10.527744-27.582464 10.527744-38.110208 0-78.747648-78.747648-216.083456-78.747648-294.831104 0L114.963456 614.303744c-39.373824 39.373824-61.06112 91.697152-61.06112 147.38944s21.687296 108.06784 61.06112 147.441664c81.27488 81.27488 213.556224 81.27488 294.831104 0l104.014848-104.067072c10.527744-10.527744 27.582464-10.527744 38.110208 0s10.527744 27.582464 0 38.110208L447.905792 947.24608C396.740608 998.358016 329.520128 1023.940608 262.352896 1023.940608z" p-id="3508"></path></svg>