<?xml version="1.0" standalone="no"?><!DOCTYPE svg PUBLIC "-//W3C//DTD SVG 1.1//EN" "http://www.w3.org/Graphics/SVG/1.1/DTD/svg11.dtd"><svg t="1544799711038" class="icon" style="" viewBox="0 0 1024 1024" version="1.1" xmlns="http://www.w3.org/2000/svg" p-id="8574" xmlns:xlink="http://www.w3.org/1999/xlink" width="200" height="200"><defs><style type="text/css"></style></defs><path d="M776.380861 941.144086l51.963385-24.717912-122.748403-258.307551h36.518655v-57.526066h-63.819387l-80.953591-170.415957c35.926162-26.206819 59.549139-68.102938 59.549138-115.655882 0-69.521238-49.972035-127.636727-116.119438-140.923308V82.855914h-57.54244v90.741496c-66.175033 13.285558-116.147068 71.402071-116.147068 140.923308 0 47.553967 23.637303 89.449063 59.576768 115.655882l-80.950521 170.415957h-63.819387v57.526066h36.486933L195.655754 916.426174l51.962362 24.717912 134.449886-283.025463h101.159755v57.52709h57.542439v-57.52709h101.118823l134.491842 283.025463zM512.00614 228.243898c48.145437 0 87.356406 38.6942 87.356405 86.27682s-39.210969 86.302402-87.356405 86.302402c-48.187393 0-87.398361-38.719783-87.398361-86.302402s39.210969-86.27682 87.398361-86.27682z m28.76508 372.349682V543.067514h-57.54244v57.526066h-73.829348l69.534541-146.372402c10.659759 2.486629 21.64186 4.114706 33.07319 4.114706 11.405748 0 22.359196-1.6291 33.031235-4.114706l69.548867 146.372402h-73.816045z" p-id="8575"></path></svg>