<?xml version="1.0" standalone="no"?><!DOCTYPE svg PUBLIC "-//W3C//DTD SVG 1.1//EN" "http://www.w3.org/Graphics/SVG/1.1/DTD/svg11.dtd"><svg t="1544076912380" class="icon" style="" viewBox="0 0 1024 1024" version="1.1" xmlns="http://www.w3.org/2000/svg" p-id="9637" xmlns:xlink="http://www.w3.org/1999/xlink" width="200" height="200"><defs><style type="text/css"></style></defs><path d="M654.222222 739.555556c-42.666667-22.755556-19.911111-65.422222 0-85.333334 25.6-25.6 56.888889-113.777778 56.888889-113.777778 51.2-22.755556 56.888889-59.733333 62.577778-85.333333 22.755556-73.955556-34.133333-85.333333-34.133333-85.333333s45.511111-122.311111 8.533333-216.177778c-48.355556-122.311111-244.622222-167.822222-278.755556-54.044444C236.088889 48.355556 284.444444 369.777778 284.444444 369.777778s-56.888889 11.377778-34.133333 85.333333c5.688889 25.6 11.377778 62.577778 62.577778 85.333333 0 0 31.288889 88.177778 56.888889 113.777778 19.911111 19.911111 42.666667 62.577778 0 85.333334-85.333333 45.511111-341.333333 56.888889-341.333334 256h967.111112c0-199.111111-256-210.488889-341.333334-256z" fill="" p-id="9638"></path></svg>